HIERARCHY
ROOT root
{
	OFFSET 0.000000 0.000000 0.000000
	CHANNELS 6 Xposition Yposition Zposition Zrotation Yrotation Xrotation
	JOINT lhip
	{
		OFFSET 0.058581 -0.082280 -0.017664
		CHANNELS 3 Zrotation Yrotation Xrotation
		JOINT lknee
		{
			OFFSET 0.043451 -0.386469 0.008037
			CHANNELS 3 Zrotation Yrotation Xrotation
			JOINT lankle
			{
				OFFSET -0.014790 -0.426874 -0.037428
				CHANNELS 3 Zrotation Yrotation Xrotation
				JOINT ltoe
				{
					OFFSET 0.041054 -0.060286 0.122042
					CHANNELS 3 Zrotation Yrotation Xrotation
					End Site
					{
						OFFSET 0.000000 0.000000 0.000000
					}
				}
			}
		}
	}
	JOINT rhip
	{
		OFFSET -0.060310 -0.090513 -0.013543
		CHANNELS 3 Zrotation Yrotation Xrotation
		JOINT rknee
		{
			OFFSET -0.043257 -0.383688 -0.004843
			CHANNELS 3 Zrotation Yrotation Xrotation
			JOINT rankle
			{
				OFFSET 0.019056 -0.420046 -0.034562
				CHANNELS 3 Zrotation Yrotation Xrotation
				JOINT rtoe
				{
					OFFSET -0.034840 -0.062106 0.130323
					CHANNELS 3 Zrotation Yrotation Xrotation
					End Site
					{
						OFFSET 0.000000 0.000000 0.000000
					}
				}
			}
		}
	}
	JOINT lowerback
	{
		OFFSET 0.004439 0.124404 -0.038385
		CHANNELS 3 Zrotation Yrotation Xrotation
		JOINT upperback
		{
			OFFSET 0.004488 0.137956 0.026820
			CHANNELS 3 Zrotation Yrotation Xrotation
			JOINT chest
			{
				OFFSET -0.002265 0.056032 0.002855
				CHANNELS 3 Zrotation Yrotation Xrotation
				JOINT lowerneck
				{
					OFFSET -0.013390 0.211636 -0.033468
					CHANNELS 3 Zrotation Yrotation Xrotation
					JOINT upperneck
					{
						OFFSET 0.010113 0.088937 0.050410
						CHANNELS 3 Zrotation Yrotation Xrotation
						End Site
						{
							OFFSET 0.000000 0.000000 0.000000
						}
					}
				}
				JOINT lclavicle
				{
					OFFSET 0.071702 0.114000 -0.018898
					CHANNELS 3 Zrotation Yrotation Xrotation
					JOINT lshoulder
					{
						OFFSET 0.122921 0.045205 -0.019046
						CHANNELS 3 Zrotation Yrotation Xrotation
						JOINT lelbow
						{
							OFFSET 0.255332 -0.015649 -0.022946
							CHANNELS 3 Zrotation Yrotation Xrotation
							JOINT lwrist
							{
								OFFSET 0.265709 0.012698 -0.007375
								CHANNELS 3 Zrotation Yrotation Xrotation
								End Site
								{
									OFFSET 0.000000 0.000000 0.000000
								}
							}
						}
					}
				}
				JOINT rclavicle
				{
					OFFSET -0.082954 0.112472 -0.023707
					CHANNELS 3 Zrotation Yrotation Xrotation
					JOINT rshoulder
					{
						OFFSET -0.113228 0.046853 -0.008472
						CHANNELS 3 Zrotation Yrotation Xrotation
						JOINT relbow
						{
							OFFSET -0.260127 -0.014369 -0.031269
							CHANNELS 3 Zrotation Yrotation Xrotation
							JOINT rwrist
							{
								OFFSET -0.269108 0.006794 -0.006027
								CHANNELS 3 Zrotation Yrotation Xrotation
								End Site
								{
									OFFSET 0.000000 0.000000 0.000000
								}
							}
						}
					}
				}
			}
		}
	}
}
MOTION
Frames: 10
Frame Time: 0.033333
0.632000 0.728372 1.251435 -105.548554 -1.220276 89.128302 11.518343 -4.254756 -43.255821 -1.667433 17.987547 45.977596 2.250992 7.831181 -28.910708 0.000000 -0.000000 0.000000 -4.582424 -2.758170 14.084127 -1.400561 4.680519 20.501806 12.230236 6.631019 -0.948119 0.000000 -0.000000 0.000000 -7.600540 16.674193 22.600094 -0.811242 -2.367348 3.118420 0.841207 4.244660 0.344119 1.786033 2.433424 5.178410 3.662962 -6.944907 8.866639 -20.567199 -0.788533 1.066382 -59.970484 3.125748 2.456030 14.502454 -27.233721 6.123350 -14.528433 -10.304965 -2.047402 23.374545 10.557616 0.806082 60.874965 15.082340 10.273188 -20.787530 36.756850 -4.868145 8.992445 5.594181 -6.245228 
0.604415 0.726070 1.269506 -103.773856 -0.972571 90.443749 10.096937 -5.746517 -41.115291 -2.462454 16.715350 42.766590 3.286541 8.618716 -29.505984 0.000000 -0.000000 0.000000 -3.631507 -2.377455 10.649289 -1.694355 3.175946 25.294656 13.157657 3.541024 6.850895 0.000000 -0.000000 0.000000 -8.519881 15.434503 22.168496 -0.684844 -2.752601 2.785773 0.984613 3.661189 0.498642 1.155719 1.901691 5.234444 4.418689 -5.701291 8.422311 -20.560839 -1.607878 1.136159 -58.879223 0.742831 3.671454 14.497494 -28.867518 5.004548 -13.070067 -11.165784 -0.725216 23.203960 9.542000 0.775758 61.500557 12.196146 10.931733 -20.692630 33.578794 -5.773917 9.390596 4.603641 -5.139414 
0.577175 0.722711 1.286936 -101.776486 -0.905967 90.828817 8.097169 -7.748309 -37.925887 -2.970221 14.675624 39.380234 4.262380 10.131901 -29.924901 0.000000 -0.000000 0.000000 -2.447652 -0.993867 6.749734 -2.119562 1.527574 31.844574 13.562942 -0.622246 14.177951 0.000000 -0.000000 0.000000 -8.967071 13.718334 22.666885 -0.502318 -2.800600 2.190768 1.081802 3.040541 1.141629 0.590186 0.971168 4.973493 4.949371 -4.989483 8.009981 -20.815227 -2.182391 0.960729 -57.624111 -1.703209 5.180585 14.531789 -31.498995 4.428997 -12.411967 -11.618705 0.397415 23.169477 8.429836 0.399068 61.484283 8.776938 11.768751 -20.396182 30.946455 -6.092973 9.766995 4.202934 -3.745367 
0.551019 0.718892 1.301978 -99.859978 -0.964035 90.791960 5.955580 -9.923111 -34.401400 -3.092340 12.551368 36.094599 5.122511 11.999529 -30.155433 0.000000 -0.000000 0.000000 -1.433141 0.817791 1.671325 -3.018583 -0.515572 40.138171 13.582074 -5.069434 18.790606 0.000000 -0.000000 0.000000 -9.300223 11.925474 23.382855 -0.153982 -2.589533 1.406062 1.241716 2.393284 1.857844 0.157675 0.465943 4.869798 4.959387 -4.252739 7.674763 -20.990109 -2.577630 1.090972 -56.991703 -4.426012 6.740572 14.887004 -34.447988 3.579657 -10.985138 -12.127319 0.908620 23.186160 7.002775 -0.148899 61.211108 5.099219 12.613623 -20.059194 28.588658 -6.313211 9.677803 3.802729 -2.282217 
0.526281 0.715615 1.314712 -98.199987 -0.849826 90.215742 3.748794 -11.315247 -30.363702 -3.103799 9.779828 33.103278 5.379348 13.763145 -30.592828 0.000000 -0.000000 0.000000 -0.557655 2.646399 -4.043427 -3.733458 -1.997354 49.517163 11.982365 -7.204382 11.391027 0.000000 -0.000000 0.000000 -9.303929 10.114504 24.068497 0.274658 -2.338621 1.430415 1.305380 1.773606 2.357568 0.377857 1.213062 4.516351 4.613479 -4.385336 7.193763 -20.663267 -3.045747 0.482068 -57.081685 -6.601204 8.383116 15.523495 -37.474403 2.275912 -10.413472 -12.081572 0.213698 23.344528 5.818409 -0.816532 61.063966 1.579812 12.466113 -20.123386 26.370795 -6.447739 11.208874 3.141093 -1.111787 
0.502555 0.712912 1.325860 -96.745451 -0.582090 89.330096 1.810475 -11.954938 -26.026952 -3.067923 6.987170 30.305972 5.377758 15.053164 -30.977690 0.000000 -0.000000 0.000000 -0.141833 4.186665 -9.952727 -4.246788 -3.103015 57.371057 11.410537 -7.609209 4.056902 0.000000 -0.000000 0.000000 -8.972889 8.248223 24.931048 0.672837 -2.196646 1.131291 1.300315 1.262491 2.786682 0.826862 2.347120 4.805109 4.146965 -4.914239 7.274408 -20.398922 -3.693553 0.216916 -57.244604 -8.778959 9.529020 16.165785 -39.605620 1.034998 -9.984527 -12.697622 -0.307441 23.581692 4.636134 -0.889745 61.128979 -1.387496 11.657109 -20.296403 23.956121 -6.631962 11.562903 2.725027 -0.523212 
0.479623 0.711039 1.336504 -95.427202 0.004819 88.248425 0.365555 -11.477822 -21.420408 -3.118702 4.032260 27.454633 5.108137 15.604252 -31.336501 0.000000 -0.000000 0.000000 0.237897 5.442610 -15.811934 -4.961924 -4.238106 62.891884 10.881830 -7.819411 -2.432812 0.000000 -0.000000 0.000000 -8.115433 6.045206 26.169310 0.853338 -1.944450 0.674261 1.276252 0.481722 2.949434 0.778342 3.301852 5.381410 3.764867 -4.601595 7.328104 -20.369687 -3.925998 -0.170892 -57.409906 -10.435938 9.905505 17.204322 -41.935168 0.234131 -10.767119 -12.633483 -0.482990 23.426643 3.477183 -0.552414 61.748248 -3.642476 10.352641 -20.370066 21.496137 -6.763608 11.448626 2.306380 0.292982 
0.458082 0.709340 1.345514 -94.118166 0.720301 87.363689 -0.510234 -10.574618 -17.282505 -3.235593 1.217531 24.834786 4.968399 15.931222 -31.677531 0.000000 -0.000000 0.000000 0.187094 6.329351 -21.998672 -5.338891 -5.623202 66.233590 9.646707 -8.610148 -8.801361 0.000000 -0.000000 0.000000 -7.287971 3.854270 26.582629 1.125626 -1.751082 0.745302 1.169373 -0.122642 3.278456 1.145091 4.251021 5.677989 3.558718 -4.532090 7.442053 -20.435181 -4.084941 -0.458866 -57.533344 -12.521081 10.491975 18.485622 -43.578731 -0.552775 -11.390311 -12.323194 -0.333102 23.570901 2.313214 -0.299408 61.992710 -5.546481 9.176375 -20.484291 19.159307 -6.748240 12.245302 1.877770 0.363584 
0.437068 0.707715 1.353318 -92.827431 1.550136 86.564191 -0.999154 -9.551162 -13.459171 -3.227540 -1.588091 22.531512 4.780945 16.291567 -32.163825 0.000000 -0.000000 0.000000 -0.261338 6.802388 -27.848675 -5.749454 -7.484497 67.033423 9.160201 -9.580181 -13.349409 0.000000 -0.000000 0.000000 -6.311366 1.611244 27.148361 1.422013 -1.756609 0.577382 1.193796 -0.873571 3.666198 1.207537 4.977631 5.384694 3.141554 -4.316956 7.797490 -20.418770 -4.093833 -0.197120 -57.822329 -14.445627 10.674735 19.755132 -45.030072 -1.767580 -10.665396 -12.213112 -0.198398 23.417215 1.207431 -0.211258 62.283635 -7.319492 8.271067 -20.488624 17.496296 -6.759679 12.394396 1.625652 1.170875 
0.416136 0.706766 1.360091 -91.732125 2.397756 85.732427 -1.206320 -8.512693 -9.769988 -3.051392 -4.234361 20.467151 4.616175 16.577128 -32.767276 0.000000 -0.000000 0.000000 -0.948492 7.041179 -32.907002 -5.795249 -9.498749 65.477459 9.070031 -10.008923 -16.364676 0.000000 -0.000000 0.000000 -5.391758 -0.344278 27.676058 1.717510 -1.617171 0.250513 1.249028 -1.478713 3.916529 1.254808 5.448025 5.634296 2.687684 -4.067721 8.551025 -20.392319 -4.032415 -0.395800 -58.219080 -16.180951 11.398932 20.179869 -45.248403 -1.784597 -9.220231 -12.837853 -0.372899 23.418080 -0.193335 0.231607 62.536584 -8.638731 7.422032 -20.507637 15.902521 -6.621338 12.283417 1.412119 1.266011 
